# xmcd CD database file
#
# Track frame offsets:
#	150
#	24057
#	47952
#
# Disc length: 1006 seconds
#
# Revision: 0
# Processed by: cddbd v1.5.1PL0 Copyright (c) Steve Scherf et al.
# Submitted via: CDex 1.51
#
DISCID=1903ec03
DTITLE=杏里 - LAST LOVE
DYEAR=1991
DGENRE=JPop
TTITLE0=LAST LOVE
TTITLE1=LAST LOVE(カラオケ)
TTITLE2=プライベート Sold out[Remix]
EXTD=YEAR: 1991
EXTT0=
EXTT1=
EXTT2=
PLAYORDER=
